<?xml version="1.0" standalone="no"?>
<!DOCTYPE svg PUBLIC "-//W3C//DTD SVG 20010904//EN"
 "http://www.w3.org/TR/2001/REC-SVG-20010904/DTD/svg10.dtd">
<svg version="1.0" xmlns="http://www.w3.org/2000/svg"
 width="475.000000pt" height="284.000000pt" viewBox="0 0 475.000000 284.000000"
 preserveAspectRatio="xMidYMid meet">

<g transform="translate(0.000000,284.000000) scale(0.100000,-0.100000)"
fill="#000000" stroke="none">
<path d="M2300 2643 c-123 -12 -237 -42 -415 -110 -73 -28 -192 -99 -235 -141
-13 -13 -37 -30 -52 -38 -16 -8 -28 -19 -28 -23 0 -10 -99 -75 -115 -76 -12 0
-108 -119 -136 -169 -18 -33 -19 -38 -6 -33 19 7 22 -6 7 -34 -16 -29 -2 -23
35 17 55 58 57 32 8 -74 -25 -53 -54 -126 -64 -162 -10 -36 -25 -90 -34 -120
-23 -79 -30 -407 -11 -515 l15 -80 -6 86 c-3 51 -1 94 5 104 8 16 11 14 17
-16 17 -85 100 -310 141 -385 42 -78 114 -172 209 -275 23 -25 45 -55 49 -66
20 -63 362 -218 540 -244 156 -23 324 -7 434 42 83 36 265 130 327 169 33 21
96 50 140 65 99 35 130 56 154 104 22 42 40 126 22 101 -6 -8 -11 -25 -11 -38
0 -12 -11 -39 -24 -60 -19 -30 -35 -41 -78 -55 -30 -9 -59 -17 -64 -17 -4 0
17 26 47 58 31 31 73 79 93 106 20 27 36 44 36 37 0 -6 5 -11 10 -11 6 0 10
11 10 24 0 13 22 70 49 127 72 151 114 317 113 442 0 53 3 97 7 97 11 0 29 44
39 95 l8 40 13 -48 c9 -31 23 -54 42 -68 16 -11 29 -27 29 -35 0 -8 4 -14 9
-14 4 0 14 26 20 58 9 47 8 80 -3 163 -24 167 -57 265 -125 366 -32 49 -66
103 -75 121 -9 17 -22 32 -29 33 -6 0 -37 30 -67 66 -30 37 -101 108 -158 160
-103 93 -184 145 -277 179 -27 10 -59 23 -70 30 -29 17 -69 28 -61 16 10 -17
-125 -21 -274 -6 -80 7 -152 13 -160 12 -8 -1 -31 -3 -50 -5z m681 -107 c81
-21 110 -38 191 -116 76 -71 86 -101 21 -58 -81 53 -81 47 -3 -28 94 -90 123
-127 118 -152 -3 -13 -9 -10 -25 17 -33 52 -241 193 -412 278 l-116 58 40 7
c36 6 53 1 165 -53 137 -67 145 -50 9 21 -75 39 -100 58 -61 46 9 -3 42 -12
73 -20z m-476 -21 c35 -11 25 -12 -81 -7 -128 5 -236 -9 -363 -48 -36 -11 -67
-18 -69 -16 -10 11 62 45 126 61 134 32 300 36 387 10z m209 -124 c162 -45
506 -347 592 -520 31 -61 37 -129 14 -156 -14 -17 -17 -79 -6 -137 7 -37 32
-56 50 -38 5 5 18 10 27 10 14 0 19 -13 24 -74 15 -158 -24 -353 -103 -511
-41 -82 -101 -175 -111 -172 -3 1 -31 -25 -61 -58 -155 -171 -324 -281 -449
-292 -34 -3 -61 -9 -61 -12 0 -8 -66 -11 -228 -10 -115 0 -150 4 -250 30 -287
73 -367 111 -483 228 -93 94 -101 107 -194 341 -52 131 -85 247 -101 360 -6
46 -9 51 -15 30 -6 -22 -7 -20 -8 13 -1 23 4 40 13 43 8 3 16 30 20 77 13 145
103 359 209 497 64 83 103 118 205 186 102 68 191 111 246 119 22 3 95 17 161
30 66 14 143 29 170 34 71 14 260 4 339 -18z m-1080 -183 c-47 -46 -90 -84
-95 -86 -5 -2 -9 -9 -9 -15 -1 -16 -49 -71 -56 -64 -14 14 121 166 200 225 60
45 43 19 -40 -60z m1558 -5 c53 -38 121 -126 116 -151 -2 -11 -12 -1 -31 30
-15 25 -57 74 -94 108 -71 66 -69 69 9 13z m109 -75 c22 -28 25 -45 3 -28 -17
15 -38 50 -28 50 3 0 14 -10 25 -22z m39 -58 c0 -5 -2 -10 -4 -10 -3 0 -8 5
-11 10 -3 6 -1 10 4 10 6 0 11 -4 11 -10z m49 -140 c0 -8 -8 1 -19 20 -11 19
-19 42 -19 50 0 8 8 -1 19 -20 11 -19 19 -42 19 -50z m101 -119 c12 -24 13
-74 1 -67 -5 3 -11 16 -14 28 -2 13 -8 31 -12 41 -10 24 12 22 25 -2z m-2094
-147 c-14 -54 -25 -88 -25 -75 -1 28 39 184 45 178 3 -2 -7 -49 -20 -103z
m2100 -111 c-10 -10 -19 5 -10 18 6 11 8 11 12 0 2 -7 1 -15 -2 -18z m-2129
-60 c-3 -10 -5 -2 -5 17 0 19 2 27 5 18 2 -10 2 -26 0 -35z m-10 -135 c-3 -8
-6 -5 -6 6 -1 11 2 17 5 13 3 -3 4 -12 1 -19z m39 -151 c13 -54 38 -132 55
-174 40 -100 33 -128 -9 -35 -42 94 -71 200 -77 282 -2 36 -2 56 1 45 3 -11
16 -64 30 -118z"/>
<path d="M2460 2344 c35 -7 98 -9 94 -2 -3 5 -29 7 -57 7 -29 -1 -45 -3 -37
-5z"/>
<path d="M3401 2244 c41 -45 76 -94 134 -189 11 -17 20 -24 23 -17 5 15 -113
174 -164 222 -32 29 -31 27 7 -16z"/>
<path d="M1239 1944 c-12 -25 -19 -47 -17 -50 2 -2 14 19 25 46 12 28 19 50
17 50 -3 0 -14 -21 -25 -46z"/>
<path d="M1131 1275 c-2 -71 68 -315 105 -370 19 -27 17 -15 -6 39 -29 69 -82
254 -90 316 -7 49 -8 51 -9 15z"/>
<path d="M1268 1075 c-6 -10 10 -110 17 -103 2 2 0 28 -3 58 -4 30 -10 50 -14
45z"/>
<path d="M1311 902 c-1 -15 26 -82 33 -82 3 0 -1 15 -8 33 -7 17 -16 39 -19
47 -3 10 -6 10 -6 2z"/>
<path d="M1250 876 c0 -13 60 -125 70 -131 6 -4 -6 24 -27 62 -40 75 -43 79
-43 69z"/>
<path d="M1385 770 c10 -11 20 -20 23 -20 3 0 -3 9 -13 20 -10 11 -20 20 -23
20 -3 0 3 -9 13 -20z"/>
<path d="M1345 765 c18 -58 94 -170 158 -231 l71 -69 -65 75 c-73 84 -99 119
-141 194 -17 28 -27 42 -23 31z"/>
</g>
</svg>
