<?xml version="1.0" standalone="no"?>
<!DOCTYPE svg PUBLIC "-//W3C//DTD SVG 20010904//EN"
 "http://www.w3.org/TR/2001/REC-SVG-20010904/DTD/svg10.dtd">
<svg version="1.0" xmlns="http://www.w3.org/2000/svg"
 width="473.000000pt" height="125.000000pt" viewBox="0 0 473.000000 125.000000"
 preserveAspectRatio="xMidYMid meet">

<g transform="translate(0.000000,125.000000) scale(0.100000,-0.100000)"
fill="#000000" stroke="none">
<path d="M3340 1165 c-75 -12 -206 -65 -225 -91 -5 -8 -27 -24 -47 -37 -49
-30 -103 -98 -86 -108 7 -4 16 -3 21 4 15 21 -4 -35 -31 -93 -22 -48 -26 -70
-28 -170 -1 -63 0 -99 3 -80 l5 35 15 -40 c8 -22 21 -62 28 -89 8 -27 18 -52
22 -55 5 -3 17 -19 27 -36 48 -75 102 -125 176 -162 70 -35 82 -38 179 -41
l104 -4 81 42 c122 63 140 74 150 89 4 7 24 30 42 49 19 20 34 42 34 49 0 7 5
13 10 13 6 0 10 5 10 11 0 5 9 29 19 52 11 23 22 69 25 102 4 33 12 77 18 98
l11 37 20 -32 20 -33 7 26 c4 15 4 46 -1 70 -5 24 -12 60 -15 79 -4 19 -11 40
-16 46 -5 7 -7 16 -6 22 2 5 -1 11 -7 12 -15 3 -35 21 -35 32 0 6 8 4 18 -3
14 -11 15 -11 5 0 -6 7 -21 18 -34 25 -12 6 -25 18 -27 26 -4 11 2 9 19 -5
l24 -20 -19 23 c-11 12 -22 20 -24 17 -3 -3 -24 12 -46 32 -22 21 -32 27 -21
14 20 -24 20 -24 0 -17 -12 4 -8 -3 13 -19 17 -15 32 -34 32 -43 -1 -16 -1
-16 -10 0 -6 9 -33 31 -62 48 -28 18 -58 38 -65 46 -8 8 -21 14 -28 14 -8 0
-26 5 -40 12 -24 11 -25 13 -9 18 11 4 32 -2 51 -13 18 -10 33 -15 33 -10 0 6
-10 15 -22 22 l-23 11 23 -6 c12 -3 22 -1 22 4 0 15 -85 39 -106 31 -17 -7
-77 -4 -139 5 -11 2 -54 -2 -95 -9z m134 -44 c10 -4 -9 -7 -45 -7 -35 1 -84
-3 -109 -6 l-45 -8 40 14 c43 16 128 19 159 7z m53 -40 c49 -10 153 -69 153
-88 0 -7 6 -13 14 -13 17 0 115 -107 118 -129 1 -9 2 -43 2 -76 1 -50 4 -60
18 -57 10 1 19 -6 23 -19 11 -34 -10 -149 -36 -201 -5 -10 -9 -24 -9 -32 0 -8
-13 -26 -30 -39 -16 -14 -30 -28 -30 -31 0 -3 -21 -25 -46 -48 -86 -80 -116
-90 -255 -90 -114 0 -136 4 -249 47 -55 22 -127 96 -141 148 -5 21 -14 35 -18
33 -19 -12 -44 87 -44 179 0 64 8 125 16 125 4 0 5 5 2 10 -3 6 -2 10 3 10 4
0 18 22 30 49 39 90 132 165 240 193 152 40 171 42 239 29z m-382 -51 c-3 -5
-12 -10 -18 -10 -7 0 -6 4 3 10 19 12 23 12 15 0z m-25 -24 c0 -2 -8 -10 -17
-17 -16 -13 -17 -12 -4 4 13 16 21 21 21 13z m670 -37 c0 -5 4 -8 8 -5 5 3 9
-1 9 -9 0 -19 0 -19 -22 5 -10 11 -13 20 -7 20 7 0 12 -5 12 -11z m-738 -41
c-7 -7 -12 -8 -12 -2 0 14 12 26 19 19 2 -3 -1 -11 -7 -17z m838 -116 c0 -15
-2 -15 -10 -2 -13 20 -13 33 0 25 6 -3 10 -14 10 -23z"/>
<path d="M3020 535 c0 -5 5 -17 10 -25 5 -8 10 -10 10 -5 0 6 -5 17 -10 25 -5
8 -10 11 -10 5z"/>
<path d="M1350 1040 c0 -30 -5 -42 -17 -46 -50 -14 -110 -53 -130 -83 -66 -98
-28 -200 97 -261 l50 -25 0 -103 c0 -78 -3 -104 -14 -108 -7 -3 -46 6 -85 19
l-72 24 3 -46 c3 -42 6 -46 38 -58 19 -6 56 -15 83 -18 l47 -6 0 -50 c0 -46 2
-49 25 -49 24 0 25 3 25 53 l0 53 44 12 c58 15 113 64 127 112 24 81 -15 152
-117 210 l-54 31 0 110 0 110 38 -7 c20 -4 49 -13 64 -20 39 -20 39 -19 36 33
-3 52 -5 53 -100 68 -37 6 -38 7 -38 45 0 36 -3 40 -25 40 -23 0 -25 -4 -25
-40z m0 -220 c0 -100 -6 -107 -52 -63 -39 37 -40 102 -2 132 48 38 54 30 54
-69z m95 -251 c29 -25 35 -38 35 -69 0 -30 -6 -43 -26 -59 -48 -38 -54 -30
-54 69 0 50 2 90 5 90 2 0 20 -14 40 -31z"/>
<path d="M1700 685 l0 -355 54 0 55 0 3 163 c3 150 5 164 26 194 29 41 82 60
122 43 50 -21 60 -59 60 -239 l0 -161 55 0 54 0 -2 188 c-2 154 -6 193 -20
219 -51 95 -181 108 -262 27 l-35 -35 0 156 0 155 -55 0 -55 0 0 -355z"/>
<path d="M2740 685 l0 -355 55 0 55 0 0 355 0 355 -55 0 -55 0 0 -355z"/>
<path d="M313 1000 c-93 -20 -188 -90 -228 -171 -70 -138 -42 -338 59 -427 51
-44 83 -59 157 -72 66 -11 166 -3 222 19 24 9 27 16 27 56 0 49 -1 50 -31 35
-40 -22 -128 -32 -183 -20 -65 13 -130 65 -157 124 -25 56 -25 176 0 231 23
50 74 99 126 121 51 22 148 22 199 0 21 -9 40 -16 43 -16 2 0 3 23 1 52 -3 48
-5 52 -32 59 -50 14 -159 18 -203 9z"/>
<path d="M2280 665 l0 -335 50 0 50 0 0 140 0 140 118 0 118 0 0 45 1 45 -119
0 -118 0 0 105 0 105 125 0 125 0 0 45 0 45 -175 0 -175 0 0 -335z"/>
<path d="M800 814 c-14 -3 -44 -12 -67 -20 -41 -15 -43 -17 -43 -58 l0 -43 47
23 c90 46 182 24 199 -48 7 -31 8 -30 -114 -48 -82 -12 -116 -26 -151 -64 -31
-33 -39 -107 -18 -158 35 -85 177 -100 249 -27 16 16 31 29 34 29 2 0 4 -16 4
-35 l0 -35 51 0 51 0 -4 194 c-3 179 -5 197 -24 223 -12 15 -34 36 -50 45 -31
18 -120 30 -164 22z m140 -279 c0 -102 -103 -170 -174 -114 -19 15 -26 30 -26
54 0 45 31 73 89 80 25 4 53 8 61 9 44 10 50 6 50 -29z"/>
<path d="M3980 799 c0 -6 30 -114 67 -241 l67 -229 55 3 54 3 52 183 51 184
49 -186 49 -186 56 0 55 0 68 233 c37 127 67 236 67 240 0 4 -21 7 -47 5 l-47
-3 -47 -188 c-45 -180 -59 -224 -59 -181 0 10 -19 99 -42 197 l-43 178 -50 -3
-50 -3 -55 -195 c-31 -110 -56 -184 -58 -170 -3 22 -73 304 -88 353 -4 13 -16
17 -55 17 -29 0 -49 -4 -49 -11z"/>
<path d="M2892 600 c0 -14 2 -19 5 -12 2 6 2 18 0 25 -3 6 -5 1 -5 -13z"/>
<path d="M3794 355 c-3 -8 -15 -17 -26 -21 -11 -3 -17 -8 -15 -11 8 -8 44 15
51 32 3 8 3 15 0 15 -2 0 -7 -7 -10 -15z"/>
<path d="M3016 337 c3 -10 9 -15 12 -12 3 3 0 11 -7 18 -10 9 -11 8 -5 -6z"/>
</g>
</svg>
